<?xml version="1.0" standalone="no"?>
<!DOCTYPE svg PUBLIC "-//W3C//DTD SVG 20010904//EN"
 "http://www.w3.org/TR/2001/REC-SVG-20010904/DTD/svg10.dtd">
<svg version="1.0" xmlns="http://www.w3.org/2000/svg"
 width="100.000000pt" height="100.000000pt" viewBox="0 0 100.000000 100.000000"
 preserveAspectRatio="xMidYMid meet">
<metadata>
Created by potrace 1.14, written by Peter Selinger 2001-2017
</metadata>
<g transform="translate(0.000000,100.000000) scale(0.100000,-0.100000)"
fill="#000000" stroke="none">
<path d="M387 944 c-215 -56 -360 -259 -344 -478 14 -186 141 -347 315 -402
166 -52 343 -10 462 110 90 92 131 183 136 308 8 215 -126 402 -330 458 -73
21 -172 22 -239 4z m48 -409 c33 -80 62 -145 65 -145 3 0 33 65 65 145 56 136
62 145 87 145 l26 0 0 -181 c-1 -178 -1 -180 -22 -177 -20 3 -21 8 -21 135 1
73 -2 130 -6 125 -3 -4 -27 -59 -54 -122 -50 -123 -60 -140 -80 -140 -7 0 -37
58 -66 129 -30 71 -57 128 -60 125 -3 -2 -5 -60 -4 -129 1 -121 0 -125 -20
-125 -21 0 -22 3 -22 180 l0 180 26 0 c25 0 31 -10 86 -145z"/>
</g>
</svg>
